# xmcd
#
# Track frame offsets: 
#        150
#        13840
#        33302
#        53157
#        66482
#        77002
#        96204
#        110347
#        120860
#        139802
#        152310
#        170267
#        182990
#        196297
#        216850
#
# Disc length: 3091 seconds
#
# Revision: 9
# Processed by: cddbd v1.5.1PL0 Copyright (c) Steve Scherf et al.
# Submitted via: ExactAudioCopy v0.95a5
#
DISCID=c50c110f
DTITLE=Various Artist - Avalon Blues: A Tribute to the Music of Mississippi J
DTITLE=ohn Hurt
DYEAR=2001
DGENRE=Blues
TTITLE0=Chris Smither - Frankie and Albert
TTITLE1=Bruce Cockburn - Avalon, My Home Town
TTITLE2=Lucinda Williams - Angels Laid Him Away
TTITLE3=Alvin Youngblood Hart - Here Am I, Oh Lord, Send Me
TTITLE4=Steve and Justin Earle - Candy Man
TTITLE5=Peter Case and Dave Alvin - Monday Morning Blues
TTITLE6=Ben Harper - Sliding Delta
TTITLE7=Geoff Muldaur - Chicken
TTITLE8=Mark Selby - Make Me a Pallet on Your Floor
TTITLE9=Beck - Stagolee
TTITLE10=Victoria Williams - Since I've Laid My Burden Down
TTITLE11=Bill Morrissey - Pay Day
TTITLE12=Taj Mahal - My Creole Belle
TTITLE13=Gillian Welch - Beulah Land
TTITLE14=John Hiatt - I'm Satisfied
EXTD=YEAR: 2001
EXTT0=
EXTT1=
EXTT2=
EXTT3=
EXTT4=
EXTT5=
EXTT6=
EXTT7=
EXTT8=
EXTT9=
EXTT10=
EXTT11=
EXTT12=
EXTT13=
EXTT14=
PLAYORDER=
